<svg xmlns="http://www.w3.org/2000/svg" viewBox="0 0 84.53 84.52"><defs><style>.cls-1{fill:#fff}</style></defs><g id="Layer_2" data-name="Layer 2"><g id="Services"><g id="Page-1"><g id="Artboard-1-Copy"><g id="_11--Essay--_education_-study_-learning_-knowledge_-outline_" data-name="11--Essay--(education,-study,-learning,-knowledge,-outline)"><path class="cls-1" d="M60.61 84.52H1.34A1.34 1.34 0 0 1 0 83.19V1.34A1.34 1.34 0 0 1 1.34 0h46.57a1.33 1.33 0 0 1 .94.39l12.7 12.7a1.34 1.34 0 0 1 .39.95v69.15a1.33 1.33 0 0 1-1.33 1.33zM2.67 81.85h56.6V14.59L47.35 2.67H2.67z"/><path class="cls-1" d="M60.61 15.37h-12.7A1.33 1.33 0 0 1 46.57 14V1.34a1.34 1.34 0 0 1 2.28-.95l12.7 12.7a1.34 1.34 0 0 1 .29 1.46 1.32 1.32 0 0 1-1.23.82zM49.24 12.7h8.14l-8.14-8.14zM47.91 39.36H14a1.34 1.34 0 1 1 0-2.67h33.91a1.34 1.34 0 0 1 0 2.67zM42.26 47.83H19.68a1.34 1.34 0 1 1 0-2.67h22.58a1.34 1.34 0 1 1 0 2.67zM47.91 56.3H14a1.34 1.34 0 1 1 0-2.67h33.91a1.34 1.34 0 0 1 0 2.67zM42.26 64.77H19.68a1.34 1.34 0 0 1 0-2.68h22.58a1.34 1.34 0 1 1 0 2.68zM42.26 30.9H19.68a1.34 1.34 0 1 1 0-2.68h22.58a1.34 1.34 0 1 1 0 2.68zM83.19 73.23h-8.47a1.33 1.33 0 0 1-1.34-1.33V8.39a1.33 1.33 0 0 1 1.34-1.33h8.47a1.33 1.33 0 0 1 1.34 1.33V71.9a1.33 1.33 0 0 1-1.34 1.33zm-7.13-2.67h5.79V9.73h-5.79z"/><path class="cls-1" d="M81.78 9.73h-5.65a1.33 1.33 0 0 1-1.33-1.34V3.45A3.45 3.45 0 0 1 78.25 0h1.41a3.46 3.46 0 0 1 3.45 3.45v4.94a1.33 1.33 0 0 1-1.33 1.34zm-4.31-2.67h3V3.45a.78.78 0 0 0-.78-.78h-1.44a.78.78 0 0 0-.78.78z"/><path class="cls-1" d="M69.08 14a1.33 1.33 0 0 1-.6-2.53l5.64-2.82a1.34 1.34 0 1 1 1.2 2.35l-5.65 2.82a1.25 1.25 0 0 1-.59.18z"/><path class="cls-1" d="M69.08 32.31A1.34 1.34 0 0 1 67.74 31V12.62a1.34 1.34 0 0 1 2.67 0V31a1.34 1.34 0 0 1-1.33 1.31zM80.36 81.7h-2.82a1.36 1.36 0 0 1-1.27-.91l-2.82-8.47a1.35 1.35 0 0 1 1.27-1.76h8.47a1.35 1.35 0 0 1 1.27 1.76l-2.83 8.47a1.34 1.34 0 0 1-1.27.91zM78.51 79h.89l1.93-5.8h-4.76z"/><path class="cls-1" d="M79 84.52a1.34 1.34 0 0 1-1.33-1.33v-2.83a1.34 1.34 0 0 1 2.67 0v2.83A1.34 1.34 0 0 1 79 84.52zM83.19 73.23h-8.47a1.33 1.33 0 0 1-1.34-1.33V49.32A1.34 1.34 0 0 1 74.72 48h8.47a1.34 1.34 0 0 1 1.34 1.34V71.9a1.33 1.33 0 0 1-1.34 1.33zm-7.13-2.67h5.79V50.65h-5.79z"/><path class="cls-1" d="M83.19 67.59h-8.47a1.34 1.34 0 0 1 0-2.68h8.47a1.34 1.34 0 0 1 0 2.68zM83.19 61.94h-8.47a1.34 1.34 0 1 1 0-2.67h8.47a1.34 1.34 0 1 1 0 2.67zM83.19 56.3h-8.47a1.34 1.34 0 1 1 0-2.67h8.47a1.34 1.34 0 1 1 0 2.67z"/></g></g></g></g></g></svg>